<mxfile host="app.diagrams.net" modified="2024-05-18T04:31:16.208Z" agent="Mozilla/5.0 (Macintosh; Intel Mac OS X 10_15_7) AppleWebKit/537.36 (KHTML, like Gecko) Chrome/124.0.0.0 Safari/537.36" version="24.4.4" etag="07S_PAp_lBG9Zq7ZeCe3" type="github">
  <diagram name="Page-1" id="ATzhFGwSt3qD6AeIzQyI">
    <mxGraphModel>
      <root>
        <mxCell id="0" />
        <mxCell id="1" parent="0" />
      </root>
    </mxGraphModel>
  </diagram>
</mxfile>
